<svg height="512pt" viewBox="0 0 512 512" width="512pt" xmlns="http://www.w3.org/2000/svg"><path d="m512 256c0 60.5-20.992188 116.109375-56.089844 159.921875 0 .011719-.011718.011719-.011718.011719-23.246094 29.027344-52.691407 52.871094-86.316407 69.546875-9.625 4.773437-19.605469 8.964843-29.875 12.519531-26.226562 9.078125-54.386719 14-83.707031 14-14.648438 0-29.015625-1.234375-42.996094-3.605469-33.6875-5.695312-65.152344-17.972656-92.996094-35.464843-8.894531-5.589844-17.429687-11.710938-25.550781-18.316407-14.125-11.515625-27.007812-24.5-38.398437-38.734375-35.085938-43.800781-56.058594-99.390625-56.058594-159.878906 0-141.386719 114.613281-256 256-256s256 114.613281 256 256zm0 0" fill="#663a91"/><path d="m487.296875 299.507812c0 3.367188-.070313 6.71875-.21875 10.054688-.457031 10.824219-1.660156 21.460938-3.574219 31.859375-4.886718 26.726563-14.367187 51.835937-27.59375 74.5 0 .011719-.011718.011719-.011718.011719-46.914063 58.566406-119.023438 96.066406-199.898438 96.066406-14.648438 0-29.015625-1.234375-42.996094-3.605469-63.207031-10.679687-118.535156-44.53125-156.945312-92.515625-19.945313-34.175781-31.367188-73.9375-31.367188-116.371094 0-.332031 0-.675781.011719-1.011718.039063-10.636719.804687-21.105469 2.234375-31.359375 10.878906-77.644531 60.300781-142.941407 128.3125-175.894531 9.832031-4.765626 20.050781-8.863282 30.605469-12.207032 22.121093-7.042968 45.695312-10.835937 70.144531-10.835937 9.5625 0 18.984375.585937 28.234375 1.703125 50.132813 6.113281 95.3125 28.253906 130.265625 61.160156 7.796875 7.324219 15.078125 15.191406 21.785156 23.539062 31.914063 39.65625 51.011719 90.050782 51.011719 144.90625zm0 0" fill="#dd104f"/><path d="m487.296875 299.507812c0 3.367188-.070313 6.71875-.21875 10.054688-.457031 10.824219-1.660156 21.460938-3.574219 31.859375-4.886718 26.726563-14.367187 51.835937-27.59375 74.5-46.917968 58.578125-119.035156 96.078125-199.910156 96.078125-14.648438 0-29.015625-1.234375-42.996094-3.605469-15.015625-7.148437-29.132812-15.882812-42.140625-25.964843-8.464843-6.542969-16.449219-13.667969-23.917969-21.316407-40.730468-41.679687-65.828124-98.710937-65.828124-161.605469 0-.332031 0-.675781.007812-1.011718.042969-10.636719.804688-21.105469 2.238281-31.359375 10.875-77.644531 60.300781-142.941407 128.3125-175.894531 9.832031-4.765626 20.050781-8.863282 30.605469-12.207032 13.488281-4.292968 27.511719-7.375 41.953125-9.132812 50.132813 6.113281 95.3125 28.253906 130.265625 61.160156 7.796875 7.324219 15.078125 15.191406 21.785156 23.539062 31.914063 39.65625 51.011719 90.050782 51.011719 144.90625zm0 0" fill="#fb3a4a"/><g fill="#dd104f"><path d="m383.476562 293.554688c-90.707031 0-175.992187 35.316406-240.128906 99.460937-18.835937 18.839844-35.191406 39.507813-48.890625 61.597656 8.121094 6.605469 16.65625 12.726563 25.550781 18.316407 12.652344-20.738282 27.875-40.121094 45.503907-57.75 58.222656-58.222657 135.628906-90.277344 217.964843-90.277344 34.566407 0 68.265626 5.652344 100.027344 16.519531 1.914063-10.398437 3.117188-21.035156 3.574219-31.859375-33.058594-10.542969-67.90625-16.007812-103.601563-16.007812zm0 0"/><path d="m369.582031 485.480469c-9.625 4.773437-19.605469 8.964843-29.875 12.519531-6.3125-46.1875-17.773437-93.101562-34.167969-139.964844-10.730468-30.679687-23.582031-61.367187-38.402343-91.722656-4.628907-9.464844-9.433594-18.910156-14.4375-28.304688-4.097657-7.703124-8.320313-15.371093-12.664063-23-37.167968-65.316406-72.882812-109.640624-84.785156-123.765624 9.832031-4.765626 20.050781-8.863282 30.605469-12.207032 16.382812 20.179688 48.160156 62.015625 81.417969 120.46875 5.308593 9.320313 10.429687 18.691406 15.382812 28.117188 4.898438 9.320312 9.632812 18.691406 14.179688 28.097656 14.710937 30.425781 27.53125 61.199219 38.292968 91.960938 16.113282 46.058593 27.648438 92.210937 34.453125 137.800781zm0 0"/><path d="m436.285156 154.601562c-25.242187 34.921876-61.125 64.042969-106.890625 86.71875-10.34375 5.128907-21.210937 9.925782-32.558593 14.398438-9.550782 3.769531-19.457032 7.304688-29.699219 10.59375-25.484375 8.203125-53.027344 14.910156-82.429688 20.082031-58.492187 10.285157-111.417969 12.277344-143.621093 12.277344-6.289063 0-11.785157-.070313-16.382813-.175781.039063-10.636719.804687-21.105469 2.234375-31.359375 3.867188.074219 8.347656.128906 13.394531.128906 31.035157 0 83.070313-1.871094 139.566407-11.851563 25.914062-4.574218 50.230468-10.394531 72.800781-17.40625 10.363281-3.207031 20.355469-6.679687 29.957031-10.386718 11.609375-4.484375 22.652344-9.332032 33.113281-14.523438 43.257813-21.503906 76.433594-49.070312 98.730469-82.035156 7.796875 7.324219 15.078125 15.191406 21.785156 23.539062zm0 0"/></g></svg>