<?xml version="1.0" encoding="UTF-8"?>
<!-- Generator: Adobe Illustrator 25.2.1, SVG Export Plug-In . SVG Version: 6.00 Build 0)  -->
<svg xmlns="http://www.w3.org/2000/svg" xmlns:xlink="http://www.w3.org/1999/xlink" version="1.1" id="Capa_1" x="0px" y="0px" viewBox="0 0 512 512" style="enable-background:new 0 0 512 512;" xml:space="preserve" width="512" height="512">
<g>
	<g>
		<g>
			<path style="fill:#FFFFFF;" d="M454.648,0H346.355c-13.691,0-24.829,11.138-24.829,24.829v4.057h-1.465     c0.025-0.41,0.062-0.816,0.062-1.233c0-10.923-8.886-19.81-19.81-19.81c-10.923,0-19.81,8.887-19.81,19.81     c0,0.416,0.037,0.823,0.063,1.233h-42.496c-10.018-17.248-28.356-27.998-48.782-27.998c-31.167,0-56.523,25.357-56.523,56.524     c0,27.234,19.361,50.032,45.04,55.353c-0.853,1.29-1.422,2.326-1.697,2.848c-0.24,0.462-0.451,0.935-0.633,1.416     c-0.053,0.08-0.111,0.171-0.165,0.251c-0.547-0.526-1.128-1.022-1.777-1.448l-31.248-20.468c-2.053-1.345-4.423-2.03-6.803-2.03     c-1.691,0-3.39,0.346-4.987,1.046c-3.843,1.685-6.573,5.198-7.26,9.338l-5.116,30.854c-0.697,4.199,0.806,8.461,3.983,11.294     c2.303,2.056,5.255,3.151,8.264,3.151c1.14,0,2.285-0.157,3.409-0.477l28.007-7.999c-0.639,1.205-1.284,2.427-1.942,3.691     l-3.96,7.742c-4.327,8.584-8.851,17.97-13.42,27.738c-3.635-4.507-9.193-7.401-15.42-7.401c-10.923,0-19.809,8.886-19.809,19.809     c0,10.923,8.886,19.81,19.809,19.81c0.267,0,0.526-0.029,0.79-0.04c-17.578,39.668-33.41,78.754-38.554,93.272     c-9.188,25.95-39.706,87.748-52.738,114.137l-1.887,3.822c-2.572,5.215-2.827,11.309-0.697,16.719     c2.134,5.417,6.482,9.707,11.933,11.772l155.962,59.046c2.352,0.891,4.817,1.342,7.326,1.342c7.555,0,14.506-4.114,18.139-10.739     l27.647-50.387c3.152,2.117,6.94,3.355,11.014,3.355c5.747,0,10.915-2.475,14.536-6.398c17.4,22.863,44.89,37.654,75.772,37.654     c52.48,0,95.176-42.696,95.176-95.177c0-19.795-6.25-38.894-17.405-54.755c0.181-0.146,0.382-0.259,0.556-0.417l23.172-21.005     c3.154-2.858,4.623-7.133,3.894-11.325c-0.729-4.193-3.556-7.721-7.488-9.345l-34.951-14.444     c-0.297-0.123-0.599-0.223-0.902-0.321c0.778-1.788,1.431-3.581,1.839-5.348c0.44-1.925,0.527-3.916,0.273-6.012     c-0.115-0.993-0.315-1.99-0.56-2.851c-0.624-2.361-2.267-8.577-14.004-22.999c2.699-1.411,4.939-3.176,6.832-5.143     c3.614,3.825,8.717,6.228,14.382,6.228c10.923,0,19.81-8.887,19.81-19.81c0-10.923-8.887-19.81-19.81-19.81     c-1.422,0-2.808,0.158-4.146,0.444c-0.082-0.39-0.168-0.779-0.279-1.167c-0.585-2.244-2.048-7.525-10.85-17.47     c1.735-0.13,3.457-0.602,5.043-1.472l32.753-17.962c3.679-2.018,6.092-5.758,6.409-9.942c0.319-4.184-1.497-8.246-4.829-10.798     l-24.829-19.017c-2.198-1.684-4.859-2.559-7.551-2.559c-1.443,0-2.895,0.252-4.29,0.766c-3.601,1.326-6.345,4.238-7.509,7.846     c-2.45-1.331-5.822-2.581-10.656-3.995c4.91-3.609,8.104-9.426,8.104-15.974c0-1.324-0.131-2.619-0.38-3.87h62.973     c6.856,0,12.414-5.558,12.414-12.414V24.829C479.477,11.138,468.34,0,454.648,0z"/>
		</g>
	</g>
	<g>
		<g>
			<g>
				<g>
					<g>
						<path style="fill:#FDF3EA;" d="M468.12,24.829v70.534H334.998V24.829c0-6.848,5.566-12.414,12.414-12.414h108.294        C462.575,12.414,468.12,17.98,468.12,24.829z"/>
					</g>
				</g>
				<g>
					<g>
						<path style="fill:#FFB4DC;" d="M468.12,24.829v2.918H334.998v-2.918c0-6.848,5.566-12.414,12.414-12.414h108.294        C462.575,12.414,468.12,17.98,468.12,24.829z"/>
					</g>
				</g>
			</g>
			<g>
				<g>
					<g>
						<circle style="fill:#FFD484;" cx="435.771" cy="20.478" r="3.037"/>
					</g>
				</g>
				<g>
					<g>
						<circle style="fill:#B8B9FD;" cx="445.147" cy="20.478" r="3.037"/>
					</g>
				</g>
				<g>
					<g>
						<path style="fill:#0060FF;" d="M457.562,20.478c0,1.678-1.36,3.037-3.037,3.037c-1.678,0-3.038-1.36-3.038-3.037        s1.36-3.037,3.038-3.037C456.202,17.44,457.562,18.8,457.562,20.478z"/>
					</g>
				</g>
			</g>
			<g>
				<g>
					<polygon style="fill:#B8B9FD;" points="393.905,47.815 393.905,75.813 418.734,61.286      "/>
				</g>
			</g>
			<g>
				<g>
					<g>
						<path style="fill:#B8B9FD;" d="M457.298,88.752H347.95c-1.004,0-1.852-0.847-1.852-1.852c0-1.009,0.831-1.832,1.852-1.832        h109.348c1.02,0,1.852,0.822,1.852,1.832C459.15,87.905,458.303,88.752,457.298,88.752z M347.95,85.586        c-0.735,0-1.335,0.589-1.335,1.315c0,0.724,0.611,1.335,1.335,1.335h109.348c0.724,0,1.335-0.611,1.335-1.335        c0-0.726-0.6-1.315-1.335-1.315H347.95z"/>
					</g>
				</g>
				<g>
					<g>
						<path style="fill:#B8B9FD;" d="M427.981,85.327v3.166H347.95c-0.869,0-1.593-0.724-1.593-1.593s0.724-1.573,1.593-1.573        H427.981z"/>
					</g>
				</g>
			</g>
		</g>
		<g>
			<g>
				<g>
					
						<ellipse transform="matrix(0.162 -0.9868 0.9868 0.162 -85.6985 679.7016)" style="fill:#FF470C;" cx="357.342" cy="390.308" rx="82.762" ry="82.762"/>
				</g>
			</g>
			<g>
				<g>
					
						<ellipse transform="matrix(0.2651 -0.9642 0.9642 0.2651 -113.7235 631.4115)" style="fill:#FDF3EA;" cx="357.342" cy="390.308" rx="66.808" ry="66.808"/>
				</g>
			</g>
			<g>
				<g>
					
						<ellipse transform="matrix(0.2318 -0.9728 0.9728 0.2318 -105.16 647.4567)" style="fill:#FF470C;" cx="357.342" cy="390.308" rx="46.865" ry="46.865"/>
				</g>
			</g>
			<g>
				<g>
					
						<ellipse transform="matrix(0.2645 -0.9644 0.9644 0.2645 -113.5762 631.6989)" style="fill:#FDF3EA;" cx="357.342" cy="390.308" rx="24.13" ry="24.131"/>
				</g>
			</g>
		</g>
		<g>
			<g>
				<g>
					<g>
						<path style="fill:#FFB4DC;" d="M393.629,232.518l-14.07-2.81c0,0,2.78,2.77,6.63,6.91c0.22,0.27,0.47,0.52,0.74,0.81        c8.03,8.69,20.01,22.63,22.02,30.23c0.1,0.37,0.18,0.74,0.22,1.09c0.09,0.69,0.09,1.29-0.04,1.82        c-2.11,9.15-14.79,23.24-30.27,21.83c0,0,20.77,17.73,25.76,27.85c0.19,0.33,0.33,0.66,0.46,0.97        c0.58,1.41,0.8,2.63,0.53,3.58c-2.11,7.74-7.03,17.61-26.05,16.2c-19.03-1.4-58.47-45.08-58.47-45.08l-63.69,125.81        l-21.729-57.294c-2.64-17.55-7.801-36.666-15.251-52.666c-12.59-27.04-27.52-48.24-27.52-48.24s16.62-64.66,24.8-95.6        c23.59-19.47,59.06-45.97,77.32-45.97c15.56,0,45.23,5.11,69.52,10.36c0.36,0.08,0.71,0.17,1.08,0.25        c20.28,4.43,36.54,8.92,37.18,10.51c0.12,0.29,0.21,0.74,0.29,1.34c0.04,0.34,0.06,0.71,0.1,1.1        c0.38,7.72-2.67,28.74-18,29.96c0,0,0.54,0.46,1.47,1.24c0.23,0.21,0.5,0.44,0.79,0.69c6.02,5.19,22.12,19.69,24.29,28.03        v0.02c0.12,0.37,0.18,0.7,0.21,1.06c0.08,0.49,0.08,0.95,0.02,1.36C410.539,217.048,409.129,231.118,393.629,232.518z"/>
					</g>
				</g>
				<g>
					<g>
						<g>
							<path style="fill:#040308;" d="M403.192,145.52c-2.648,0.807-5.4,1.117-8.131,1.117c-5.628,0-11.256-1.324-16.139-2.462         c-3.062-0.724-6.538-1.531-9.414-3.414c-2.504-1.655-5.09-4.697-4.966-8.442v-0.207c0.021-0.29,0.248-0.496,0.538-0.496         c0.021,0,0.021,0,0.041,0c0.29,0.021,0.517,0.269,0.517,0.559c0,0.145-0.021,0.248-0.021,0.393         c0,3.186,2.276,5.834,4.49,7.283c2.71,1.78,5.938,2.524,9.062,3.269c7.18,1.676,16.014,3.745,23.918,1.303         C403.13,144.754,403.151,145.127,403.192,145.52z"/>
						</g>
					</g>
					<g>
						<g>
							<path style="fill:#040308;" d="M387.447,177.404c-0.041,0.083-0.083,0.145-0.165,0.207c-1.986,1.469-2.421,4.262-1.966,6.373         c0.559,2.524,2.235,4.738,3.621,6.352c3.104,3.621,6.807,6.766,10.387,9.786c2.235,1.904,4.78,4.056,7.738,5.028         c1.407,0.455,3.103,0.621,4.676,0.31c0.124,0.372,0.186,0.703,0.207,1.055c-0.641,0.124-1.283,0.186-1.924,0.186         c-1.159,0-2.297-0.186-3.311-0.517c-3.145-1.034-5.772-3.269-8.09-5.234c-3.621-3.062-7.345-6.207-10.511-9.89         c-1.469-1.738-3.248-4.076-3.848-6.849c-0.538-2.441-0.021-5.71,2.359-7.469c0.021-0.021,0.021-0.021,0.041-0.021         L387.447,177.404z"/>
						</g>
					</g>
					<g>
						<g>
							<path style="fill:#040308;" d="M409.172,268.752c-0.642,0.29-1.283,0.559-1.945,0.807c-1.055,0.393-2.193,0.786-3.414,0.848         h-0.393c-2.752,0-5.545-1.572-8.504-4.8c-3.124-3.393-5.959-7.469-8.876-12.766c-1.428-2.586-2.959-5.607-3.083-8.897         c-0.083-2.524,0.89-5.628,3.228-7.324c0.228,0.269,0.476,0.517,0.745,0.807c-2.09,1.428-2.959,4.221-2.876,6.476         c0.124,3.042,1.572,5.938,2.938,8.4c2.876,5.235,5.648,9.228,8.731,12.58c2.855,3.124,5.504,4.552,8.028,4.428         c1.076-0.041,2.131-0.393,3.103-0.766c0.703-0.269,1.407-0.559,2.09-0.89C409.047,268.028,409.13,268.4,409.172,268.752z"/>
						</g>
					</g>
					<g>
						<g>
							<path style="fill:#040308;" d="M405.075,321.223c-1.221,0.6-2.586,0.848-3.952,0.848c-1.262,0-2.524-0.228-3.621-0.6         c-3.31-1.138-6.021-3.538-8.421-5.669l-3.952-3.497c-2.338-2.048-4.966-4.386-6.58-7.345         c-1.428-2.648-2.235-6.621-0.207-9.828c0.165-0.248,0.497-0.331,0.745-0.165c0.269,0.165,0.331,0.497,0.165,0.745         c-1.448,2.317-1.345,5.731,0.269,8.731c1.511,2.793,3.952,4.966,6.331,7.055l3.952,3.497         c2.317,2.048,4.945,4.386,8.049,5.442c2.048,0.703,4.655,0.828,6.766-0.186C404.806,320.582,404.951,320.912,405.075,321.223         z"/>
						</g>
					</g>
				</g>
			</g>
			<g>
				<g>
					<g>
						<g>
							<path style="fill:#0060FF;" d="M378.318,367.127H196.719c-2.239,0-4.054-1.815-4.054-4.054V45.354         c0-2.239,1.815-4.054,4.054-4.054h181.598c2.239,0,4.054,1.815,4.054,4.054v317.719         C382.372,365.312,380.557,367.127,378.318,367.127z"/>
						</g>
					</g>
					<g>
						<g>
							<rect x="203.752" y="54.235" style="fill:#FDF3EA;" width="167.533" height="285.791"/>
						</g>
					</g>
					<g>
						<g>
							<path style="fill:#FDF3EA;" d="M304.765,359.963h-34.492c-3.522,0-6.387-2.865-6.387-6.387s2.865-6.387,6.387-6.387h34.492         c3.521,0,6.387,2.865,6.387,6.387S308.286,359.963,304.765,359.963z M270.273,347.643c-3.272,0-5.933,2.661-5.933,5.933         c0,3.272,2.661,5.933,5.933,5.933h34.492c3.272,0,5.933-2.661,5.933-5.933c0-3.272-2.661-5.933-5.933-5.933H270.273z"/>
						</g>
					</g>
				</g>
				<g>
					<g>
						<g>
							<g>
								<rect x="218.393" y="147.912" style="fill:#FFD484;" width="131.695" height="100.944"/>
							</g>
						</g>
						<g>
							<g>
								<path style="fill:#040308;" d="M286.914,203.22c-0.106,0-0.211-0.034-0.301-0.101l-68.856-53.482          c-0.214-0.166-0.254-0.476-0.088-0.69c0.171-0.214,0.474-0.247,0.69-0.088l68.537,53.235l62.871-54.554          c0.2-0.18,0.515-0.157,0.692,0.049c0.178,0.205,0.155,0.515-0.049,0.692l-63.175,54.819          C287.143,203.182,287.029,203.22,286.914,203.22z"/>
							</g>
						</g>
						<g>
							<g>
								<polygon style="fill:#040308;" points="218.746,249.198 218.04,248.515 272.846,192.03 273.597,192.748         "/>
							</g>
						</g>
						<g>
							<g>
								
									<rect x="325.366" y="181.628" transform="matrix(0.77 -0.638 0.638 0.77 -65.1754 258.4063)" style="fill:#040308;" width="0.98" height="75.963"/>
							</g>
						</g>
					</g>
					<g>
						<g>
							<g>
								<circle style="fill:#B8B9FD;" cx="344.239" cy="149.751" r="18.217"/>
							</g>
						</g>
						<g>
							<g>
								<path style="fill:#FFFFFF;" d="M333.003,150.352c0.452,0,1.061,0.193,1.061,0.982c0,0.47-0.184,0.919-0.184,1.425          c0,1.353,1.636,2.521,3.672,2.521c1.724,0,3.389-0.928,3.389-2.753c0-1.85-1.337-2.54-2.771-2.54          c-0.485,0-0.937,0.223-1.452,0.223c-0.663,0-0.919-0.488-0.919-1c0-0.204,0.229-0.699,0.425-0.885          c0.912-0.903,2.477-3.202,3.088-4.088h-5.468c-0.717,0-1.097-0.452-1.097-0.937c0-0.425,0.308-0.957,0.991-0.957h7.511          c0.593,0,0.993,0.292,0.993,0.84c0,0.267-0.081,0.515-0.249,0.726c-0.461,0.575-2.467,3.443-3.531,4.47          c2.558-0.195,4.612,1.434,4.612,4.052c0,2.964-2.576,4.636-5.549,4.636c-3.009,0-5.726-1.663-5.726-4.45          C331.798,151.662,331.931,150.352,333.003,150.352z"/>
							</g>
							<g>
								<path style="fill:#FFFFFF;" d="M352.211,142.219c1.052,0,1.982,0.124,2.708,0.515c0.38,0.211,0.557,0.458,0.557,0.91          c0,0.62-0.497,0.912-0.957,0.912c-0.539,0-0.708-0.205-0.928-0.319c-0.205-0.106-0.611-0.159-1.522-0.159          c-1.964,0-3.398,1.735-3.85,4.274c1.009-1.036,2.681-1.53,3.726-1.53c3.07,0,4.989,1.751,4.989,5.052          c0,2.238-1.618,5.193-5.212,5.193c-4.151,0-5.672-3.22-5.672-6.486C346.051,145.954,348.228,142.219,352.211,142.219z           M351.662,155.28c1.431,0,3.317-1.009,3.317-3.416c0-2.416-1.531-3.326-3.034-3.326c-1.328,0-3.187,0.69-3.807,2.256v0.796          C348.138,153.458,349.406,155.28,351.662,155.28z"/>
							</g>
						</g>
					</g>
					<g>
						<g>
							<g>
								<rect x="236.109" y="270.343" style="fill:#FFB4DC;" width="96.599" height="21.871"/>
							</g>
						</g>
						<g>
							<g>
								<path d="M242.161,285.421c0.013-0.921,0.031-1.856,0.031-2.91c0-1.349,0-3.216-0.09-4.537          c-0.032-0.198-0.049-0.337-0.049-0.517c0-0.411,0.171-0.654,0.564-0.742c0.173-0.142,0.396-0.191,0.587-0.191          c0.407,0,0.672,0.539,0.744,0.762c1.036,1.564,3.985,5.034,5.115,6.706c0-5.448-0.126-6.039-0.126-6.724          c0-0.688,0.285-0.82,0.787-0.82c0.661,0,0.706,0.591,0.706,1.086v7.29c0,0.306,0.052,0.611,0.052,0.953          c0,0.656-0.198,0.858-0.712,0.858c-0.47,0-0.755-0.272-0.87-0.609c-1.616-2.2-3.319-4.265-5.003-6.522l-0.382-0.598          c0.02,3.897,0.058,5.066,0.058,6.178c0.007,0.223,0.038,0.483,0.038,0.719c0,0.445-0.115,0.831-0.764,0.831          c-0.431,0-0.769-0.229-0.769-0.591C242.078,285.695,242.154,285.403,242.161,285.421z"/>
							</g>
							<g>
								<path d="M253.099,285.282l0.056-0.205l-0.146-7.6c0-0.838,0.42-0.845,0.827-0.845h3.349          c0.153-0.014,0.382-0.058,0.458-0.058c0.64,0,0.769,0.229,0.769,0.688c0,0.647-0.351,0.744-0.769,0.744          c-0.097,0-0.261,0-0.427-0.02c-1.645,0-1.906,0.007-2.148,0.007h-0.591v2.016c0.166,0.004,0.326,0.004,3.146,0.004          c0.097,0,0.223-0.011,0.337-0.025c0.153-0.018,0.362-0.038,0.598-0.038c0.458,0,0.717,0.414,0.717,0.699          c0,0.452-0.335,0.661-0.807,0.661l-3.991,0.007v3.807c0.834,0,1.672,0.038,2.594,0.038c0.254,0,0.465-0.032,0.654-0.063          c0.18-0.025,0.357-0.052,0.573-0.052c0.501,0,0.897,0.139,0.897,0.643c0,0.737-0.559,0.762-1.151,0.762h-4.277          c-0.434,0-0.757-0.196-0.757-0.717C253.009,285.587,253.06,285.414,253.099,285.282z"/>
							</g>
							<g>
								<path d="M260.695,278.016c-0.108-0.279-0.216-0.591-0.216-0.852c0-0.449,0.261-0.692,0.775-0.692          c0.236,0,0.465,0.052,0.668,0.605c1.321,3.692,1.964,5.549,2.423,6.96c0.481-1.387,0.807-2.436,1.301-3.733          c-0.191-0.387-0.647-1.85-0.845-2.243c-0.153-0.272-0.279-0.571-0.279-0.789c0-0.546,0.209-0.762,0.762-0.762          c0.382,0,0.528,0.281,1.029,1.634c0.058,0.146,0.115,0.414,0.173,0.566c0.164-0.364,0.368-1.011,0.501-1.488          c0.076-0.324,0.209-0.757,0.782-0.757c0.431,0,0.706,0.306,0.706,0.757c0,0.234-0.121,0.501-0.254,0.762          c-0.362,0.737-0.656,1.418-0.955,2.173c0.396,1.011,0.726,1.984,1.407,3.917c0.775-2.218,1.404-4.432,2.243-6.618v0.007          c0.101-0.515,0.292-0.971,0.838-0.971c0.477,0,0.737,0.265,0.737,0.692c0,0.31-0.063,0.476-0.196,0.807          c-1.043,2.625-1.769,4.78-2.829,7.861c0.014,0.038,0,0.058,0,0.103c0,0.375-0.279,0.686-0.858,0.686          c-0.452,0-0.553-0.31-0.629-0.605v0.007c-0.184-0.591-0.375-1.047-0.564-1.569c-0.306-0.845-0.611-1.805-0.935-2.663          c-0.35,0.998-0.876,2.74-1.373,4.054c0.013,0.076,0.013,0.166,0.013,0.191c0,0.386-0.389,0.584-0.802,0.584          c-0.571,0-0.686-0.528-0.737-0.827C262.621,283.158,261.331,279.663,260.695,278.016z"/>
							</g>
							<g>
								<path d="M274.664,283.113c0.382,0,0.694,0.229,0.694,0.611c0,0.223-0.069,0.438-0.052,0.674          c0.063,0.571,0.948,0.978,1.85,0.978c0.91,0,1.919-0.265,1.919-1.481c0-0.8-0.877-1.398-1.557-1.753          c-1.436-0.751-3.241-1.202-3.241-3.369c0-1.613,1.488-2.326,3.014-2.326c1.353,0,2.625,0.431,2.757,1.728          c0.038,0.476-0.344,0.73-0.699,0.73c-0.542,0-0.73-0.368-0.764-0.674c-0.247-0.407-0.856-0.515-1.371-0.515          c-0.706,0-1.494,0.295-1.494,1.05c0,0.897,0.935,1.353,1.672,1.735c1.34,0.692,3.119,1.571,3.119,3.445          c0,2.002-1.773,2.695-3.369,2.695c-1.36,0-3.38-0.661-3.328-2.472C273.857,283.484,274.055,283.113,274.664,283.113z"/>
							</g>
							<g>
								<path d="M282.811,284.996l-0.094-7.589c0.005-0.643,0.202-0.948,0.724-0.948c0.584,0,0.757,0.191,0.757,0.802v0.953          c-0.007,1.582-0.014,5.142,0,6.82c0.984,0,1.659,0,2.097-0.02c0.236-0.018,0.47-0.07,0.737-0.07          c0.553,0,0.859,0.261,0.859,0.75c0,0.661-0.56,0.748-1.088,0.755h-3.375c-0.418,0-0.724-0.119-0.724-0.706          C282.703,285.497,282.811,285.268,282.811,284.996z"/>
							</g>
							<g>
								<path d="M289.779,285.282l0.056-0.205l-0.146-7.6c0-0.838,0.42-0.845,0.827-0.845h3.348          c0.153-0.014,0.382-0.058,0.459-0.058c0.64,0,0.768,0.229,0.768,0.688c0,0.647-0.35,0.744-0.768,0.744          c-0.097,0-0.261,0-0.427-0.02c-1.645,0-1.906,0.007-2.148,0.007h-0.591v2.016c0.166,0.004,0.326,0.004,3.146,0.004          c0.097,0,0.222-0.011,0.337-0.025c0.153-0.018,0.362-0.038,0.598-0.038c0.458,0,0.717,0.414,0.717,0.699          c0,0.452-0.335,0.661-0.807,0.661l-3.991,0.007v3.807c0.834,0,1.672,0.038,2.593,0.038c0.254,0,0.465-0.032,0.654-0.063          c0.18-0.025,0.357-0.052,0.573-0.052c0.501,0,0.897,0.139,0.897,0.643c0,0.737-0.56,0.762-1.151,0.762h-4.277          c-0.434,0-0.757-0.196-0.757-0.717C289.69,285.587,289.741,285.414,289.779,285.282z"/>
							</g>
							<g>
								<path d="M299.661,278.061c-0.591,0-1.216,0.013-1.964,0.013c-0.414,0-0.611-0.414-0.611-0.782          c0-0.501,0.26-0.661,0.89-0.661h5.072c0.344,0,0.769,0.153,0.769,0.706c0,0.414-0.286,0.755-0.643,0.762          c-0.133,0-0.258-0.038-0.4-0.038h-1.638l-0.02,7.169c0,0.205,0.045,0.389,0.045,0.618c0,0.369-0.101,0.793-0.769,0.793          c-0.775,0-0.744-0.584-0.744-1.043L299.661,278.061z"/>
							</g>
							<g>
								<path d="M306.897,278.061c-0.591,0-1.216,0.013-1.964,0.013c-0.414,0-0.611-0.414-0.611-0.782          c0-0.501,0.261-0.661,0.89-0.661h5.072c0.344,0,0.769,0.153,0.769,0.706c0,0.414-0.285,0.755-0.643,0.762          c-0.133,0-0.258-0.038-0.4-0.038h-1.638l-0.02,7.169c0,0.205,0.045,0.389,0.045,0.618c0,0.369-0.101,0.793-0.769,0.793          c-0.775,0-0.744-0.584-0.744-1.043L306.897,278.061z"/>
							</g>
							<g>
								<path d="M312.653,285.282l0.056-0.205l-0.146-7.6c0-0.838,0.42-0.845,0.827-0.845h3.349          c0.153-0.014,0.382-0.058,0.458-0.058c0.64,0,0.769,0.229,0.769,0.688c0,0.647-0.35,0.744-0.769,0.744          c-0.097,0-0.261,0-0.427-0.02c-1.645,0-1.906,0.007-2.148,0.007h-0.591v2.016c0.166,0.004,0.326,0.004,3.146,0.004          c0.097,0,0.223-0.011,0.337-0.025c0.153-0.018,0.362-0.038,0.598-0.038c0.458,0,0.717,0.414,0.717,0.699          c0,0.452-0.335,0.661-0.807,0.661l-3.991,0.007v3.807c0.834,0,1.672,0.038,2.594,0.038c0.254,0,0.465-0.032,0.654-0.063          c0.18-0.025,0.357-0.052,0.573-0.052c0.501,0,0.897,0.139,0.897,0.643c0,0.737-0.559,0.762-1.151,0.762h-4.277          c-0.434,0-0.757-0.196-0.757-0.717C312.563,285.587,312.615,285.414,312.653,285.282z"/>
							</g>
							<g>
								<path d="M321.045,285.223c0-3.526,0-5.268,0.007-7.41c-0.045-0.121-0.09-0.362-0.09-0.546c0-0.364,0.229-0.737,0.674-0.737          c0.348,0,0.706,0.063,1.155,0.063c0.375,0,0.757-0.058,1.184-0.063c2.553,0,4.214,0.984,4.214,3.279          c0,2.16-1.335,3.369-2.441,3.814c0.146,0.908,0.668,1.672,1.537,1.672c0.324,0,0.598-0.083,0.789-0.375          c0.119-0.173,0.279-0.326,0.539-0.326c0.459,0,0.724,0.288,0.724,0.674c0,0.726-0.856,1.366-2.166,1.366          c-1.805,0-2.555-1.703-2.785-2.757c-0.209,0-0.71,0-0.939-0.007c-0.249-0.007-0.649-0.014-0.948-0.014v0.928          c0.014,0.396,0.142,0.769,0.142,1.164c0,0.483-0.44,0.685-0.764,0.685c-0.501,0-0.87-0.368-0.87-0.89          C321.006,285.56,321.024,285.376,321.045,285.223z M323.872,282.529c2.295,0,2.816-1.366,2.816-2.778          c0-1.85-1.926-1.906-2.847-1.906c-0.431,0-0.865,0.018-1.38,0.025c-0.025,0.649-0.025,0.998-0.025,1.64          c0,1.144,0.013,1.94,0.058,2.98C322.939,282.511,323.757,282.529,323.872,282.529z M325.46,283.718h0.007H325.46z           M325.467,283.718l0.007-0.007C325.467,283.711,325.467,283.718,325.467,283.718z"/>
							</g>
						</g>
					</g>
				</g>
			</g>
			<g>
				<g>
					<g>
						<path style="fill:#FFB4DC;" d="M257.399,421.728l-1.85,3.65l-0.05,0.11l-36.92,69.75c-1.99,3.61-7.42,5.27-11.27,3.81        l-155.97-59.05c-4.57-1.73-6.66-7-4.5-11.38c11.61-23.54,45.27-91.28,55.2-119.31c11.72-33.08,79.58-196.19,95.09-195.81        c14.2,0.34,30.14,18.87,23.24,44.37c-0.72,2.65-0.929,6.198-1.969,10.178c-3.447,13.039-8.317,33.01-12.886,50.662        c-6.274,24.236-12.615,44.82-12.615,44.82s14.93,21.2,27.52,48.24c7.45,16,13.129,36.573,15.769,54.123l13.379,26.581        L257.399,421.728z"/>
					</g>
				</g>
				<g>
					<g>
						<path style="fill:#040308;" d="M237.098,372.512c-0.252,0-0.474-0.184-0.512-0.44c-1.782-11.895-7.567-39.834-16.687-60.442        c-9.275-20.952-27.247-47.549-27.429-47.816c-0.085-0.128-0.11-0.288-0.067-0.436c0.29-0.975,28.86-97.728,28.86-119.064        c0-20.662-14.902-27.968-21.309-30.15c-5.744-1.942-10.816,7.578-10.866,7.674c-0.135,0.254-0.445,0.355-0.699,0.218        c-0.254-0.135-0.351-0.447-0.218-0.699c0.225-0.427,5.578-10.387,12.115-8.173c6.618,2.254,22.01,9.798,22.01,31.13        c0,20.968-27.256,113.776-28.833,119.122c1.692,2.517,18.498,27.71,27.379,47.776c9.167,20.707,14.976,48.765,16.767,60.707        c0.04,0.283-0.153,0.546-0.436,0.589C237.149,372.51,237.122,372.512,237.098,372.512z"/>
					</g>
				</g>
				<g>
					<g>
						<path style="fill:#040308;" d="M169.437,154.278c1.732,1.942,3.996,3.962,6.596,3.962c0.011,0,0.023,0,0.034,0        c2.87-0.018,5.027-2.394,6.758-4.715c3.827-5.128,7.353-10.592,10.477-16.241c1.58-2.859,2.798-5.292,3.83-7.654        c1.137-2.605,2.249-5.686,1.872-8.776c-0.447-3.654-2.241-5.787-5.048-6.005c-0.342-0.058-0.562,0.2-0.584,0.499        c-0.025,0.299,0.2,0.562,0.499,0.584c2.865,0.225,3.787,2.872,4.054,5.052c0.344,2.825-0.658,5.616-1.791,8.21        c-1.018,2.33-2.22,4.735-3.784,7.564c-3.101,5.605-6.598,11.028-10.396,16.116c-1.571,2.106-3.499,4.263-5.893,4.279        c-0.009,0-0.018,0-0.027,0c-2.285,0-4.31-2.065-6.016-4.009L169.437,154.278z"/>
					</g>
				</g>
			</g>
		</g>
		<g>
			<g>
				<g>
					<path style="fill:#B8B9FD;" d="M219.536,90.422c9.133-8.082,14.922-19.856,14.922-33.01c0-24.361-19.749-44.11-44.11-44.11       c-24.361,0-44.11,19.749-44.11,44.11c0,24.361,19.749,44.11,44.11,44.11c7.323,0,14.212-1.812,20.29-4.969l15.368,11.309       L219.536,90.422z"/>
				</g>
			</g>
			<g>
				<g>
					<g>
						<path style="fill:#FF470C;" d="M189.819,50.105c0,0-15.056-18.225-24.3-5.547s24.829,42.261,24.829,42.261        S189.423,50.501,189.819,50.105z"/>
					</g>
				</g>
				<g>
					<g>
						<path style="fill:#FF470C;" d="M189.285,50.105c0,0,15.056-18.225,24.3-5.547s-23.326,42.261-23.326,42.261        S189.681,50.501,189.285,50.105z"/>
					</g>
				</g>
			</g>
		</g>
		<g>
			<g>
				<g>
					<g>
						<polygon style="fill:#B8B9FD;" points="411.955,172.398 419.879,135.42 444.707,154.437       "/>
					</g>
				</g>
				<g>
					<g>
						<polygon style="fill:#FFB4DC;" points="167.788,126.217 131.424,136.602 136.541,105.749       "/>
					</g>
				</g>
				<g>
					<g>
						<polygon style="fill:#FFD484;" points="407.371,291.276 450.478,301.303 427.718,329.966       "/>
					</g>
				</g>
			</g>
			<g>
				<g>
					<g>
						<path style="fill:#0060FF;" d="M274.429,434.418c0,4.085-3.311,7.396-7.396,7.396c-4.085,0-7.396-3.311-7.396-7.396        c0-4.085,3.311-7.396,7.396-7.396C271.118,427.022,274.429,430.333,274.429,434.418z"/>
					</g>
				</g>
				<g>
					<g>
						<path style="fill:#FF470C;" d="M393.113,111.647c0,4.085-3.311,7.396-7.396,7.396c-4.085,0-7.396-3.311-7.396-7.396        c0-4.085,3.311-7.396,7.396-7.396C389.802,104.252,393.113,107.563,393.113,111.647z"/>
					</g>
				</g>
				<g>
					<g>
						<path style="fill:#FFB4DC;" d="M308.767,27.653c0,4.085-3.311,7.396-7.396,7.396s-7.396-3.311-7.396-7.396        s3.311-7.396,7.396-7.396S308.767,23.569,308.767,27.653z"/>
					</g>
				</g>
				<g>
					<g>
						<path style="fill:#0060FF;" d="M435.551,222.759c0,4.085-3.311,7.396-7.396,7.396c-4.085,0-7.396-3.311-7.396-7.396        s3.311-7.396,7.396-7.396C432.239,215.364,435.551,218.675,435.551,222.759z"/>
					</g>
				</g>
				<g>
					<g>
						<path style="fill:#FF470C;" d="M135.495,192.12c0,4.085-3.311,7.396-7.396,7.396c-4.085,0-7.396-3.311-7.396-7.396        c0-4.085,3.311-7.396,7.396-7.396C132.184,184.724,135.495,188.036,135.495,192.12z"/>
					</g>
				</g>
			</g>
		</g>
	</g>
</g>















</svg>
