<svg id="Capa_1" enable-background="new 0 0 512.236 512.236" height="512" viewBox="0 0 512.236 512.236" width="512" xmlns="http://www.w3.org/2000/svg"><g><g><path d="m203.045 123.657c-4.202 0-7.608-3.406-7.608-7.608v-41.818c0-4.202 3.406-7.608 7.608-7.608s7.608 3.406 7.608 7.608v41.818c0 4.202-3.406 7.608-7.608 7.608z" fill="#365e7d"/></g><g><path d="m218.479 81.839h-30.867c-4.202 0-7.608-3.406-7.608-7.608s3.406-7.608 7.608-7.608h30.867c4.202 0 7.608 3.406 7.608 7.608s-3.406 7.608-7.608 7.608z" fill="#2b4d66"/></g><g><path d="m293.967 94.249c-17.726 0-32.146-14.421-32.146-32.147s14.42-32.146 32.146-32.146 32.147 14.42 32.147 32.146-14.421 32.147-32.147 32.147zm0-49.077c-9.336 0-16.93 7.595-16.93 16.93 0 9.336 7.595 16.931 16.93 16.931 9.336 0 16.931-7.595 16.931-16.931.001-9.335-7.594-16.93-16.931-16.93z" fill="#eab14d"/></g><g><path d="m342.323 102.736c-1.839 0-3.701-.159-5.573-.487-17.458-3.064-29.169-19.761-26.106-37.22 3.064-17.457 19.762-29.175 37.219-26.106 17.459 3.064 29.171 19.761 26.107 37.22-2.735 15.586-16.338 26.593-31.647 26.593zm-.024-49.083c-8.064 0-15.228 5.796-16.669 14.006-1.614 9.195 4.555 17.988 13.751 19.603 4.457.782 8.946-.218 12.649-2.815 3.702-2.597 6.172-6.481 6.954-10.935 1.614-9.195-4.555-17.988-13.751-19.603-.984-.172-1.966-.256-2.934-.256z" fill="#e49542"/></g><g><path d="m387.52 121.836c-4.24 0-8.476-.85-12.5-2.549-16.33-6.893-24.008-25.787-17.116-42.117 3.339-7.911 9.559-14.049 17.515-17.281 7.956-3.233 16.694-3.173 24.603.164 16.331 6.895 24.008 25.789 17.117 42.118-3.339 7.912-9.559 14.049-17.515 17.282-3.908 1.588-8.007 2.383-12.104 2.383zm.004-49.106c-2.159 0-4.316.418-6.377 1.255-4.189 1.703-7.465 4.935-9.224 9.101-3.631 8.601.413 18.553 9.014 22.183 4.168 1.761 8.768 1.79 12.959.088 4.189-1.703 7.465-4.935 9.224-9.102 3.631-8.601-.413-18.552-9.015-22.184-2.117-.893-4.349-1.341-6.581-1.341z" fill="#eab14d"/></g><g><path d="m425.763 152.529c-7.063 0-14.17-2.31-20.094-7.065-13.822-11.097-16.04-31.37-4.944-45.194 11.096-13.822 31.369-16.041 45.194-4.944 13.823 11.097 16.041 31.371 4.944 45.194-6.341 7.899-15.682 12.009-25.1 12.009zm.047-49.058c-4.961 0-9.879 2.163-13.22 6.325-5.844 7.28-4.676 17.958 2.604 23.802 7.279 5.844 17.957 4.676 23.802-2.604 5.845-7.28 4.677-17.958-2.604-23.802-3.118-2.504-6.862-3.721-10.582-3.721zm19.12 32.286h.01z" fill="#e49542"/></g><g><path d="m451.226 194.542c-10.896 0-21.536-5.53-27.569-15.515-9.166-15.173-4.28-34.973 10.891-44.14 7.351-4.44 15.987-5.752 24.325-3.696 8.337 2.057 15.374 7.237 19.814 14.588 4.44 7.349 5.752 15.988 3.695 24.325-2.056 8.336-7.237 15.373-14.587 19.813-.001 0-.001 0-.001 0-5.184 3.134-10.91 4.625-16.568 4.625zm12.636-11.136h.01zm-12.72-37.942c-3.048 0-6.049.83-8.725 2.447-7.99 4.827-10.564 15.256-5.736 23.248 4.827 7.989 15.254 10.56 23.247 5.737 3.87-2.339 6.599-6.046 7.683-10.436 1.083-4.391.392-8.941-1.947-12.812s-6.045-6.599-10.435-7.683c-1.355-.336-2.726-.501-4.087-.501z" fill="#eab14d"/></g><g><path d="m469.535 240.079c-4.265 0-8.525-.86-12.568-2.579-7.903-3.358-14.025-9.593-17.239-17.556s-3.133-16.701.225-24.603c3.358-7.903 9.593-14.025 17.556-17.239 7.964-3.213 16.701-3.134 24.603.225 7.903 3.358 14.025 9.593 17.239 17.556s3.133 16.701-.225 24.603c-3.358 7.903-9.593 14.025-17.556 17.239-3.889 1.569-7.964 2.354-12.035 2.354zm.007-49.105c-2.145 0-4.29.412-6.339 1.239-4.194 1.692-7.477 4.916-9.246 9.079-1.768 4.163-1.811 8.764-.118 12.958 1.692 4.194 4.916 7.477 9.079 9.246 4.162 1.768 8.765 1.812 12.958.118 4.194-1.692 7.477-4.916 9.246-9.079 1.768-4.163 1.811-8.764.118-12.958-1.692-4.194-4.916-7.477-9.079-9.246-2.129-.904-4.374-1.357-6.619-1.357z" fill="#e49542"/></g><g><path d="m480.022 288.005c-6.067 0-12.019-1.727-17.253-5.074-7.235-4.625-12.236-11.791-14.081-20.178-1.845-8.386-.314-16.988 4.312-24.223 4.625-7.234 11.79-12.235 20.177-14.08 8.387-1.846 16.99-.314 24.223 4.312 7.235 4.625 12.236 11.79 14.081 20.177 3.809 17.311-7.177 34.494-24.489 38.304-2.318.509-4.653.762-6.97.762zm5.336-8.193h.01zm-5.24-40.903c-1.221 0-2.451.133-3.672.402-4.416.971-8.19 3.605-10.626 7.415-2.436 3.811-3.242 8.341-2.27 12.758.971 4.417 3.605 8.191 7.415 10.627s8.341 3.243 12.759 2.27c9.118-2.006 14.904-11.056 12.897-20.174-.971-4.417-3.605-8.19-7.415-10.626-2.758-1.763-5.893-2.672-9.088-2.672z" fill="#eab14d"/></g><g><path d="m203.045 148.222c-40.798 0-73.991-33.192-73.991-73.991s33.192-73.992 73.991-73.992 73.992 33.192 73.992 73.992c0 40.798-33.193 73.991-73.992 73.991zm0-132.767c-32.409 0-58.775 26.367-58.775 58.776s26.366 58.775 58.775 58.775 58.776-26.366 58.776-58.775-26.367-58.776-58.776-58.776z" fill="#e49542"/></g><circle cx="203.045" cy="308.951" fill="#eab14d" r="203.045"/><path d="m203.045 105.905c-4.166 0-8.298.141-12.402.388 106.362 6.411 190.644 94.684 190.644 202.657s-84.282 196.247-190.644 202.657c4.104.247 8.236.388 12.402.388 112.139 0 203.045-90.906 203.045-203.045s-90.906-203.045-203.045-203.045z" fill="#e49542"/><circle cx="203.045" cy="308.951" fill="#f4fbff" r="155.59"/><path d="m203.045 153.36c-4.609 0-9.168.212-13.675.605 79.524 6.926 141.916 73.664 141.916 154.985s-62.391 148.06-141.915 154.986c4.507.393 9.066.605 13.675.605 85.93 0 155.59-69.66 155.59-155.59s-69.661-155.591-155.591-155.591z" fill="#daf1f4"/><g><g><path d="m203.045 183.62c-4.202 0-7.608-3.406-7.608-7.608v-22.652c0-4.202 3.406-7.608 7.608-7.608s7.608 3.406 7.608 7.608v22.652c0 4.202-3.406 7.608-7.608 7.608z" fill="#2b4d66"/></g><g><path d="m297.047 222.557c-1.947 0-3.894-.743-5.38-2.228-2.971-2.972-2.971-7.788 0-10.76l16.017-16.017c2.972-2.97 7.788-2.97 10.76 0 2.971 2.972 2.971 7.788 0 10.76l-16.017 16.017c-1.486 1.485-3.433 2.228-5.38 2.228z" fill="#2b4d66"/></g><g><path d="m358.636 316.559h-22.652c-4.202 0-7.608-3.406-7.608-7.608s3.406-7.608 7.608-7.608h22.652c4.202 0 7.608 3.406 7.608 7.608s-3.406 7.608-7.608 7.608z" fill="#2b4d66"/></g><g><path d="m313.064 426.578c-1.947 0-3.894-.743-5.38-2.228l-16.017-16.017c-2.971-2.972-2.971-7.788 0-10.76 2.972-2.97 7.788-2.97 10.76 0l16.017 16.017c2.971 2.972 2.971 7.788 0 10.76-1.486 1.485-3.433 2.228-5.38 2.228z" fill="#2b4d66"/></g><g><path d="m203.045 472.149c-4.202 0-7.608-3.406-7.608-7.608v-22.651c0-4.202 3.406-7.608 7.608-7.608s7.608 3.406 7.608 7.608v22.651c0 4.202-3.406 7.608-7.608 7.608z" fill="#2b4d66"/></g><g><path d="m93.026 426.578c-1.947 0-3.894-.743-5.38-2.228-2.971-2.972-2.971-7.788 0-10.76l16.017-16.017c2.972-2.97 7.788-2.97 10.76 0 2.971 2.972 2.971 7.788 0 10.76l-16.017 16.017c-1.486 1.485-3.433 2.228-5.38 2.228z" fill="#2b4d66"/></g><g><path d="m70.107 316.559h-22.652c-4.202 0-7.608-3.406-7.608-7.608s3.406-7.608 7.608-7.608h22.651c4.202 0 7.608 3.406 7.608 7.608s-3.405 7.608-7.607 7.608z" fill="#2b4d66"/></g><g><path d="m109.043 222.557c-1.947 0-3.894-.743-5.38-2.228l-16.017-16.017c-2.971-2.972-2.971-7.788 0-10.76 2.972-2.97 7.788-2.97 10.76 0l16.017 16.017c2.971 2.972 2.971 7.788 0 10.76-1.485 1.485-3.433 2.228-5.38 2.228z" fill="#2b4d66"/></g></g><g><path d="m203.045 316.559h-49.607c-4.202 0-7.608-3.406-7.608-7.608s3.406-7.608 7.608-7.608h41.999v-77.19c0-4.202 3.406-7.608 7.608-7.608s7.608 3.406 7.608 7.608v84.798c0 4.202-3.406 7.608-7.608 7.608z" fill="#2b4d66"/></g></g></svg>