<svg height="512pt" viewBox="-1 0 512 512" width="512pt" xmlns="http://www.w3.org/2000/svg"><path d="m429.292969 247.867188v-36.101563c0-98.621094-80.234375-178.855469-178.855469-178.855469s-178.855469 80.234375-178.855469 178.855469v36.101563h-32.914062v-36.101563c0-116.769531 95-211.765625 211.765625-211.765625 116.769531 0 211.769531 94.996094 211.769531 211.765625v36.101563zm0 0" fill="#c97e4b"/><path d="m27.640625 253.179688s-6.328125 141.828124 61.882813 233.625c11.78125 15.855468 30.386718 25.195312 50.144531 25.195312h221.539062c19.753907 0 38.359375-9.339844 50.140625-25.195312 68.210938-91.796876 61.882813-233.625 61.882813-233.625zm0 0" fill="#dd9666"/><path d="m473.230469 253.179688h-60.597657s6.328126 141.828124-61.878906 233.625c-11.785156 15.855468-30.390625 25.195312-50.144531 25.195312h60.597656c19.753907 0 38.359375-9.339844 50.140625-25.195312 68.210938-91.796876 61.882813-233.625 61.882813-233.625zm0 0" fill="#c97e4b"/><path d="m452.234375 404.203125c1.683594-5.261719 3.230469-10.515625 4.65625-15.738281l-2.664063.152344c-20.554687 1.136718-41.242187 2.09375-62.050781 2.867187l3.648438-44.199219c23.621093-.925781 47.210937-2.074218 70.746093-3.449218.886719-5.347657 1.65625-10.570313 2.328126-15.632813l-1.554688.109375c-23.367188 1.375-46.785156 2.527344-70.238281 3.457031l5.820312-70.523437c.308594-3.738282-2.097656-7.070313-5.570312-8.0625h-4.265625c-2.992188.863281-5.292969 3.503906-5.5625 6.792968l-5.976563 72.378907c-18.011719.640625-36.042969 1.148437-54.082031 1.527343l2.410156-58.496093c.175782-4.265625-3.136718-7.863281-7.398437-8.039063-.109375-.003906-.21875-.007812-.324219-.007812-4.121094 0-7.542969 3.253906-7.714844 7.410156l-2.449218 59.425781c-17.9375.300781-35.886719.472657-53.832032.515625v-59.625c0-4.265625-3.460937-7.726562-7.726562-7.726562s-7.726563 3.460937-7.726563 7.726562v59.628906c-17.945312-.03125-35.894531-.191406-53.828125-.480468l-2.21875-53.804688c-.171875-4.152344-3.59375-7.40625-7.714844-7.40625-.105468 0-.214843.003906-.324218.007813-4.261719.175781-7.574219 3.773437-7.398438 8.035156l2.179688 52.886719c-18.039063-.367188-36.066406-.863282-54.078125-1.492188l-4.789063-58.011718c-.351562-4.25-4.09375-7.414063-8.335937-7.0625-4.253907.351562-7.414063 4.082031-7.0625 8.335937l4.636719 56.164063c-23.972657-.9375-47.90625-2.105469-71.78125-3.503907.671874 5.058594 1.445312 10.277344 2.328124 15.613281 23.53125 1.359376 47.113282 2.492188 70.734376 3.402344l3.609374 43.71875c-21.546874-.832031-43.148437-1.84375-64.792968-3.035156 1.417968 5.21875 2.960937 10.46875 4.632812 15.726562 20.523438 1.101563 41.007813 2.042969 61.4375 2.820313l3.707032 44.886719c-15.757813-.542969-31.371094-1.183594-46.785157-1.921875 2.671875 5.371093 5.523438 10.667969 8.570313 15.867187 13.042968.589844 26.21875 1.109375 39.496094 1.5625l3.40625 41.246094c5.050781 1.835938 10.355468 3.023438 15.792968 3.507812l-3.652344-44.257812c16.046876.480469 32.226563.863281 48.480469 1.148438l1.789063 43.351562h15.464844l-1.777344-43.113281c16.050781.214843 32.160156.339843 48.277344.367187v42.746094h15.453124v-42.75c16.117188-.035156 32.226563-.164062 48.277344-.386719l-1.78125 43.136719h15.464844l1.789062-43.382812c16.257813-.292969 32.4375-.679688 48.484376-1.167969l-3.65625 44.304687c5.4375-.484375 10.742187-1.671875 15.796874-3.507812l3.40625-41.300782c13.292969-.457031 26.484376-.984374 39.539063-1.582031 3.042969-5.199219 5.894531-10.5 8.5625-15.871093-15.421875.746093-31.046875 1.394531-46.820313 1.949218l3.667969-44.449218c20.570313-.753907 41.019531-1.683594 61.339844-2.789063zm-331.628906-56.257813c17.796875.609376 35.609375 1.09375 53.4375 1.453126l1.800781 43.707031c-17.167969-.363281-34.378906-.84375-51.628906-1.441407zm8.589843 104.054688-3.699218-44.832031c17.03125.582031 34.03125 1.050781 50.984375 1.40625l1.839843 44.601562c-16.472656-.289062-32.867187-.683593-49.125-1.175781zm113.515626 1.800781c-16.332032-.027343-32.65625-.15625-48.914063-.378906l-1.839844-44.550781c16.964844.289062 33.886719.464844 50.753907.527344zm0-59.855469c-17.078126-.0625-34.210938-.246093-51.390626-.542968l-1.804687-43.726563c17.726563.28125 35.457031.4375 53.195313.46875zm64.367187 59.453126c-16.261719.230468-32.582031.363281-48.914063.398437v-44.371094c16.96875-.007812 33.886719-.128906 50.742188-.363281zm2.464844-59.796876c-17.0625.242188-34.191407.367188-51.378907.371094v-43.832031c17.730469-.042969 35.464844-.210937 53.191407-.503906zm62.136719 58.347657c-16.257813.503906-32.652344.902343-49.128907 1.199219l1.828125-44.335938c17.058594-.308594 34.050782-.738281 50.96875-1.285156zm4.949218-59.921875c-17.128906.5625-34.335937 1.003906-51.609375 1.320312l1.8125-44c17.828125-.371094 35.640625-.863281 53.441407-1.488281zm0 0" fill="#c97e4b"/><path d="m454.226562 388.617188c-19.460937 1.074218-39.042968 1.988281-58.730468 2.742187-7.25 25.765625-17.496094 52.164063-31.960938 76.292969 2.289063-.0625 4.578125-.132813 6.863282-.203125l-3.65625 44.304687c5.4375-.480468 10.742187-1.671875 15.796874-3.503906l3.40625-41.304688c13.292969-.457031 26.484376-.984374 39.539063-1.578124 3.042969-5.203126 5.890625-10.5 8.5625-15.871094v-.003906c-15.421875.746093-31.046875 1.398437-46.820313 1.949218l3.667969-44.449218c20.570313-.753907 41.019531-1.683594 61.339844-2.789063 1.695313-5.300781 3.253906-10.59375 4.691406-15.859375zm0 0" fill="#b26e40"/><path d="m467.347656 328.3125c-19.789062 1.164062-39.613281 2.167969-59.464844 3.011719-.707031 5.054687-1.507812 10.253906-2.421874 15.570312 20.402343-.855469 40.777343-1.875 61.113281-3.058593.878906-5.316407 1.644531-10.507813 2.316406-15.542969zm0 0" fill="#b26e40"/><path d="m488.964844 281.398438c-155.828125 10.269531-311.988282 10.273437-468.449219-.0625-12.355469-.816407-21.597656-11.683594-20.414063-24.011719 1.132813-11.804688 11.445313-20.578125 23.28125-19.796875 154.136719 10.183594 308.578126 10.191406 462.714844.027344 11.988282-.789063 22.375 8.203124 23.316406 20.175781l.003907.039062c.957031 12.195313-8.242188 22.824219-20.453125 23.628907zm0 0" fill="#ff8c51"/><path d="m509.417969 257.765625-.003907-.035156c-.941406-11.972657-11.328124-20.96875-23.316406-20.175781-12.433594.816406-24.875 1.566406-37.3125 2.253906l1.738282 43.90625c12.816406-.707032 25.628906-1.476563 38.441406-2.320313 12.210937-.800781 21.410156-11.429687 20.453125-23.628906zm0 0" fill="#f26e3b"/></svg>